# xmcd CD database file
# Copyright (C) 1993-1998 Ti Kan
# 
# Track frame offsets:
#     150
#     27503
#     47415
#     66565
#     116828
#     137878
#     152928
#     206915
#     236303
#     257213
#     279400
# 
# Disc length: 4039 seconds
# 
# Revision: 1
# Processed by: cddbd v1.4b41PL1 Copyright (c) Steve Scherf et al.
# Submitted via: DiscPlay 4.0.4
# 
DISCID=a90fc50b
DTITLE=Stevie Ray Vaughan And Double Trouble - Force Of Nature - Disc 1
DYEAR=1900
DGENRE=
TTITLE0=Boilermaker
TTITLE1=Close To You, Baby
TTITLE2=Tell Me
TTITLE3=Let Me Love You
TTITLE4=Day I'm Gone
TTITLE5=unlisted
TTITLE6=I'm Leavin' You
TTITLE7=Texas Flood
TTITLE8=Rude Mood
TTITLE9=Don't Loose Your Cool
TTITLE10=Thunderbird
EXTD=
EXTT0=
EXTT1=
EXTT2=
EXTT3=
EXTT4=
EXTT5=
EXTT6=
EXTT7=
EXTT8=
EXTT9=
EXTT10=
PLAYORDER=
